<?xml version="1.0" encoding="utf-8"?>
<!-- Generator: Adobe Illustrator 25.2.1, SVG Export Plug-In . SVG Version: 6.00 Build 0)  -->
<svg version="1.1" id="Layer_1" xmlns="http://www.w3.org/2000/svg" xmlns:xlink="http://www.w3.org/1999/xlink" x="0px" y="0px"
	 viewBox="0 0 246.4 253.7" style="enable-background:new 0 0 246.4 253.7;" xml:space="preserve">
<style type="text/css">
	.st0{fill:#24387A;}
</style>
<g>
	<g>
		<path class="st0" d="M214.4,121.9h16.7C229.9,95.8,219.5,72.1,203,54l-12,12C204.5,81,213.1,100.5,214.4,121.9z"/>
		<path class="st0" d="M62,195l-11.6,11.6c18.1,16.5,41.8,27,67.9,28.1v-16.3C96.7,217.3,77.1,208.6,62,195z"/>
		<path class="st0" d="M32,131.8H15.3c1.2,26.1,11.6,49.8,28.1,67.9l11.6-11.6C41.6,172.9,33,153.3,32,131.8z"/>
		<path class="st0" d="M62.4,59.1c15-13.4,34.5-21.9,55.9-23.1V19c-26.1,1.2-49.8,11.6-67.9,28.1L62.4,59.1z"/>
		<path class="st0" d="M55.5,66l-12-12c-16.5,18.1-27,41.8-28.1,67.9h16.7C33.3,100.5,41.9,81,55.5,66z"/>
		<path class="st0" d="M184,59.1l12-12c-18.1-16.5-41.8-27-67.9-28.1v17.1C149.6,37.2,169,45.7,184,59.1z"/>
		<path class="st0" d="M128.1,218.4v16.3c26.1-1.2,49.8-11.6,67.9-28.1L184.4,195C169.4,208.6,149.8,217.3,128.1,218.4z"/>
		<path class="st0" d="M191.4,188.1l11.6,11.6c16.5-18.1,27-41.8,28.1-67.9h-16.7C213.4,153.3,204.9,172.9,191.4,188.1z"/>
	</g>
	<g id="RzhgyK.tif">
	</g>
</g>
<path class="st0" d="M44.6,112.1c1,0.7,1.9,1.2,2.9,1.9c0.3-1.2,0.6-2.2,0.9-3.4c0.6,0.3,1,0.6,1.6,0.9c0.6-1.8,1.2-3.5,1.7-5.3
	c0.1-0.3-0.3-0.9-0.7-1.2c-0.7-0.5-0.7-1.1-0.5-1.8c0.7-2.6,0.7-2.7-1.5-4.1c-0.7-0.4-0.9-0.9-0.6-1.7c3.3-8.6,7.8-16.3,13.7-23.3
	c3.8-4.5,7.9-8.6,12.6-12.1c0.4-0.3,1.3-0.6,1.5-0.4c2.3,2.2,4.3,1.7,6.1-0.5c0.3,0.1,0.4,0.1,0.6,0.2c2,1.6,2,1.6,4.1-0.1
	c0.9-0.7,2-1.3,3.1-2.1c-0.7-0.7-1.3-1.3-2-2c1.2-0.8,2.3-1.4,3.5-2.2c-0.9-0.7-1.7-1.3-2.7-2c1.8-0.8,3.4-1.5,4.9-2.1
	c6.2-2.5,12.7-4.3,19.3-5.2c0.7-0.1,1.4,0.3,2.1,0.3c0.9,0.1,1.8,0.1,2.8,0c1-0.2,1.8,0,2.6,0.6c0.5,0.4,1.4,0.7,2.1,0.6
	c2-0.1,3.9-0.4,6.1-0.7c-0.4-0.5-0.7-0.9-1.2-1.5c1.2,0.1,2.2,0,3.1,0.2c4.7,0.8,9.4,1.5,14,2.4c0.5,0.1,1,0.5,1.4,0.9
	c1.4,1.5,2.6,3.1,4.1,4.4c0.7,0.6,1.8,0.8,2.7,1c1.2,0.2,2.2,0.5,2.9,1.6c0.6,1.1,1.7,1.6,3,1.7c2,0.2,3.9,0.6,6.3,1
	c-0.5-0.8-0.8-1.2-1.2-1.7c2.6,0.3,4.8,1.4,6.8,2.9c22.2,16,34.3,37.5,35.4,64.9c0.7,18.2-4.5,34.7-15.1,49.6
	c-0.4,0.6-0.9,1.1-1.4,1.9c-0.2-0.8-0.3-1.3-0.5-2c-1,1-1.8,1.8-2.8,2.8c-0.3-0.9-0.6-1.7-1-2.9c-1.6,1.6-3.1,3-4.4,4.5
	c-0.2,0.2-0.1,0.8,0,1.1c0.6,1.6,0,2.7-1.4,3.5c-1.3,0.7-1.6,1.6-1.2,2.9c0.4,1.2-0.2,2-1.1,2.8c-13.6,11.3-29.2,17.8-46.9,18.9
	c-19.1,1.2-36.8-3.3-52.2-14.7c-26.9-19.8-38-46.6-33.5-79.7C44.4,112.7,44.5,112.5,44.6,112.1z M114.2,106.8
	c-1.4-2-2.8-3.9-4.2-5.9c-1.4,0.9-2.6,1.8-3.9,2.7c-0.8,0.5-1,1.1-0.3,1.9c1.2,1.5,2.2,3.1,3.4,4.8c-1.9,1.4-3.6,2.6-5.4,3.9
	c1.2,1.7,2.2,3.2,3.3,4.8c1.9-1.2,3.6-2.3,5.4-3.5c1.4,2.1,2.7,4,4.1,6.1c1.8-1.2,3.4-2.2,5.1-3.3c-1.3-2.2-2.6-4.3-4-6.5
	c1.8-1.3,3.6-2.5,5.5-3.8c-1.2-1.7-2.2-3.2-3.3-4.8C117.8,104.4,116.1,105.6,114.2,106.8z M148,108.3c-1.6,1-3.1,1.8-4.5,2.8
	c-0.8,0.5-1.2,0.4-1.6-0.4c-1-1.8-2.1-3.5-3.2-5.3c-1.9,1.1-3.6,2.2-5.3,3.2c1.4,2.1,2.7,4.1,4,6.1c-2,1.3-3.8,2.5-5.7,3.7
	c1.1,1.8,2.1,3.3,3.2,4.9c2-1.2,3.8-2.3,5.7-3.5c1.3,2.2,2.5,4.2,3.8,6.4c1.8-1.2,3.4-2.2,5-3.3c-1.3-2.2-2.5-4.1-3.7-6.1
	c1.9-1.2,3.6-2.3,5.4-3.4C150,111.6,149.1,110,148,108.3z M125.3,85.6c1.9-1,3.7-1.9,5.6-2.9c-0.9-1.3-1.8-2.5-2.6-3.8
	c-0.5-0.9-1-0.9-1.8-0.5c-1.5,0.8-3,1.6-4.6,2.4c-1.2-1.5-2.2-2.9-3.4-4.3c-0.3-0.3-1-0.8-1.3-0.6c-1.6,0.8-3.2,1.7-5,2.7
	c1.5,2,2.8,3.8,4.2,5.6c-2,1.3-3.8,2.4-5.7,3.7c1,1.4,1.9,2.5,2.8,3.8c0.6,0.8,1,0.8,1.8,0.3c1.5-1,3.1-1.9,4.7-2.9
	c1.4,2,2.7,3.8,4.1,5.8c1.8-1.1,3.4-2.1,5.2-3.1C127.9,89.6,126.6,87.7,125.3,85.6z M110.5,131.2c-1.8,1.2-3.5,2.4-5.4,3.6
	c1.1,1.6,2.1,3.1,3.1,4.6c1.9-1.1,3.6-2.1,5.3-3.2c1.1,1.8,2.2,3.4,3.3,5.1c0.2,0.3,0.9,0.6,1.1,0.5c1.5-0.8,3-1.7,4.6-2.6
	c-1.1-1.9-1.9-3.5-2.9-5.1c-0.6-0.9-0.5-1.4,0.4-1.9c1.2-0.7,2.4-1.4,3.6-2.2c0.3-0.2,0.6-0.8,0.5-1c-0.9-1.5-1.9-3-2.8-4.5
	c-1.9,1.2-3.7,2.2-5.5,3.4c-1.3-2-2.6-3.9-4-5.9c-1.8,1.2-3.4,2.2-5.1,3.3C108.1,127.3,109.3,129.2,110.5,131.2z M157.6,123.6
	c1,1.7,1.9,3.2,2.9,5c1.9-1.3,3.6-2.5,5.4-3.8c1.2,2.1,2.3,4,3.5,6.1c1.7-1.4,3.2-2.6,4.6-3.8c-1.1-1.9-2-3.6-3-5.4
	c1.8-1.4,3.4-2.7,5.1-4c-1-1.7-1.9-3.3-2.9-5c-1.8,1.3-3.5,2.4-5.3,3.7c-1.2-2-2.4-3.9-3.6-6c-1.6,1.1-3.1,2.2-4.8,3.3
	c1.2,2.1,2.3,4,3.5,6C161.3,121.1,159.6,122.3,157.6,123.6z M113.5,155.8c1.1,1.9,2.1,3.8,3.2,5.8c1.8-0.8,3.5-1.6,5.3-2.4
	c-1.1-2.1-2.2-4-3.2-6c1.9-1,3.7-2,5.7-3c-1-1.7-1.9-3.3-2.9-5c-1.9,1-3.7,1.8-5.5,2.8c-1.2-2-2.3-3.9-3.5-5.8
	c-1.9,1-3.6,1.9-5.4,2.9c1.1,2,2.2,3.8,3.3,5.7c-1.9,0.9-3.6,1.7-5.5,2.6c1,1.7,1.9,3.3,2.9,4.9
	C109.9,157.4,111.7,156.6,113.5,155.8z M91.4,120.5c1.3,1.9,2.5,3.6,3.8,5.5c1.7-1.2,3.2-2.4,4.8-3.6c-1.3-2-2.6-3.9-3.9-5.8
	c1.4-1.2,2.8-2.2,4-3.3c0.3-0.3,0.6-0.9,0.5-1.2c-0.9-1.5-1.9-2.8-3-4.3c-1.7,1.4-3.3,2.6-5,4c-1.4-1.8-2.6-3.5-3.9-5.3
	c-1.6,1.4-3,2.6-4.4,3.8c1.1,1.5,2,2.9,3.1,4.2c0.8,1,0.6,1.6-0.4,2.3c-1.2,0.9-2.3,2-3.5,3c1.1,1.6,2.1,3.1,3.2,4.6
	C88.3,123.1,89.8,121.8,91.4,120.5z M161.6,148.9c1.8-1.2,3.4-2.3,5.1-3.5c1,2,1.9,3.8,2.9,5.7c1.3-1,2.4-1.9,3.6-2.6
	c1-0.7,1.2-1.3,0.6-2.4c-0.8-1.4-1.4-2.9-2.2-4.4c1.3-1.1,2.5-2,3.7-3c0.3-0.3,0.7-1,0.6-1.3c-0.7-1.5-1.5-3-2.4-4.5
	c-1.5,1.1-2.9,2.2-4.3,3.2c-1.1-1.9-2.2-3.7-3.3-5.6c-1.3,1-2.4,1.8-3.6,2.6c-1,0.6-1.2,1.3-0.6,2.3c0.6,1,1,2.2,1.6,3.2
	c0.8,1.2,0.6,2-0.7,2.7c-1.3,0.7-2.5,1.7-3.8,2.6C159.8,145.5,160.6,147.1,161.6,148.9z M148,84.4c1.8-0.8,3.4-1.5,5.1-2.3
	c-0.9-1.4-1.9-2.6-2.6-3.9c-0.5-0.8-1-0.8-1.7-0.4c-1.4,0.6-2.7,1.1-4.2,1.7c-1.2-1.6-2.3-3.1-3.4-4.6c-0.2-0.3-0.8-0.8-1-0.7
	c-1.8,0.6-3.5,1.2-5.4,1.9c1.5,2,2.8,3.8,4.1,5.7c-1.8,0.9-3.4,1.7-5.1,2.6c0.9,1.3,1.8,2.4,2.4,3.6c0.6,1.2,1.3,1.1,2.3,0.5
	c1.3-0.7,2.6-1.3,4-2c1.4,2,2.6,4,4,6c1.8-0.9,3.5-1.7,5.2-2.6C150.4,88.1,149.2,86.3,148,84.4z M88.9,82.9
	c-1.5,1.3-2.8,2.4-4.1,3.6c-0.3,0.3-0.4,1-0.3,1.3c0.9,1.2,1.9,2.4,2.9,3.7c1.8-1.4,3.4-2.7,5.2-4.1c1.3,1.7,2.6,3.2,3.9,4.8
	c1.7-1.3,3.2-2.4,4.8-3.6c-1.3-1.7-2.6-3.2-3.8-4.8c1.8-1.4,3.5-2.6,5.3-3.9c-0.9-1.2-1.8-2.3-2.6-3.4c-0.6-0.8-1.1-1-1.9-0.3
	c-1.4,1-3,2-4.5,3c-1.2-1.4-2.5-2.8-3.8-4.2c-1.6,1.3-3,2.5-4.6,3.8C86.6,80.1,87.7,81.5,88.9,82.9z M155.9,156.9
	c-1.6,0.9-3.1,1.8-4.5,2.7c-0.3,0.2-0.5,0.9-0.4,1.3c0.4,1,0.9,2,1.4,3c0.9,1.7,0.9,1.7-0.9,2.6c-1.1,0.6-2.2,1.1-3.4,1.7
	c0.8,1.8,1.6,3.4,2.4,5.1c1.8-0.9,3.4-1.7,5.1-2.6c0.8,1.8,1.6,3.5,2.4,5.4c1.9-1.1,3.6-2,5.4-3c-0.9-1.9-1.6-3.6-2.4-5.3
	c1.4-1,2.7-1.8,3.9-2.8c0.3-0.2,0.6-0.9,0.5-1.2c-0.5-1.5-1.2-2.9-1.9-4.4c-1.7,1.1-3.3,2.1-5.1,3.2
	C157.7,160.7,156.8,158.9,155.9,156.9z M157.6,89.4c1.4-0.7,2.8-1.2,4-1.8c0.7-0.3,1.1-0.2,1.6,0.5c0.9,1.5,2,3,3,4.5
	c1.7-0.9,3.3-1.7,4.9-2.5c-1.1-1.8-2.1-3.4-3.1-5.1c1.7-0.7,3.1-1.3,4.8-1.9c-0.9-1.4-1.8-2.6-2.5-3.8c-0.4-0.7-0.9-0.9-1.7-0.5
	c-1.2,0.5-2.5,0.9-3.7,1.3c-1.1-1.5-2.1-2.9-3.1-4.3c-0.2-0.3-0.8-0.7-1-0.6c-1.7,0.6-3.4,1.2-5.2,1.9c1.3,1.8,2.4,3.5,3.6,5.2
	c-1.7,0.8-3.2,1.5-4.9,2.3C155.4,86.2,156.4,87.7,157.6,89.4z M139,63.5c-0.9-1.2-1.8-2.2-2.6-3.3c-0.6-0.9-1.3-1.3-2.4-0.8
	c-1,0.4-2.1,0.5-3.2,0.8c-0.8,0.3-1.1,0-1.6-0.6c-0.7-1-1.5-1.8-2.4-2.7c-0.2-0.2-0.7-0.5-1-0.4c-1.8,0.5-3.6,1-5.6,1.6
	c1.2,1.5,2.3,2.8,3.5,4.2c-1.8,0.9-3.4,1.7-5.2,2.5c1,1.4,1.9,2.6,2.8,3.6c0.3,0.3,1,0.4,1.4,0.3c1.1-0.3,2.2-0.8,3.3-1.3
	c0.8-0.3,1.3-0.3,1.9,0.5c0.7,1.1,1.6,2.2,2.4,3.2c0.3,0.3,0.9,0.7,1.3,0.6c1.7-0.5,3.3-1.2,5.1-1.8c-1.2-1.6-2.2-3.1-3.4-4.8
	C135.4,64.5,137.1,64.1,139,63.5z M79.1,125.1c-1.3,1.3-2.5,2.4-3.6,3.6c-0.2,0.2-0.2,1,0,1.3c0.7,1.1,1.4,2.1,2.2,3.2
	c0.4,0.6,0.4,1-0.2,1.5c-0.9,0.7-1.7,1.5-2.5,2.4c-0.2,0.3-0.3,0.9-0.2,1.2c0.8,1.3,1.6,2.5,2.6,3.9c1.3-1.2,2.5-2.2,3.7-3.3
	c1,1.4,2,2.8,3.1,4.3c1.6-1.2,3.1-2.3,4.6-3.5c-1.1-1.8-2.2-3.4-3.2-5.1c1.6-1.3,2.9-2.4,4.4-3.6c-1.1-1.6-2.1-3.1-3.2-4.6
	c-1.5,1.2-2.9,2.4-4.3,3.6C81.4,128.3,80.3,126.8,79.1,125.1z M64.6,91.9c-1.2,1.7-2.2,3.2-3.3,4.8c0.9,1.2,1.8,2.3,2.7,3.4
	c-0.8,1.2-1.6,2.3-2.3,3.4c-0.2,0.4-0.5,1.1-0.3,1.3c0.9,1.2,2,2.4,3.1,3.7c1.1-1.5,2-2.8,2.9-4.2c1.1,1.3,2.1,2.4,3.2,3.6
	c1.2-1.4,2.3-2.7,3.2-4c0.2-0.3,0-1.2-0.2-1.7c-0.7-1-1.5-1.8-2.2-2.7c1-1.5,2.5-2.9,2.6-4.3c0-1.3-1.6-2.6-2.5-3.9
	c0-0.1-0.2-0.1-0.3-0.1c-1.2,1.2-2.3,2.3-3.6,3.6C66.6,93.9,65.7,93,64.6,91.9z M67.6,132.8c1-1.4,1.9-2.6,2.9-3.8
	c0.6-0.8,0.6-1.3,0-2.1c-2.4-3.2-2.3-3.2,0.1-6.6c0.2-0.3,0.4-1,0.2-1.3c-0.9-1.3-2-2.5-3.1-3.9c-1.1,1.5-2,2.7-3,4
	c-1.1-1.2-2.1-2.3-3.2-3.6c-0.8,1.5-1.5,2.9-2.3,4.1c-0.7,1-0.6,1.9,0.2,2.6c1.9,1.7,1.8,3.4,0.2,5.2c-0.3,0.4-0.5,1.2-0.3,1.6
	c0.8,1.4,1.9,2.6,3,4.1c0.9-1.5,1.6-2.7,2.4-4.1C65.7,130.5,66.6,131.6,67.6,132.8z M123.1,183.9c1.7-0.5,3.2-0.9,4.8-1.4
	c-0.7-1.6-1.3-3-2-4.4c-0.1-0.3-0.8-0.4-1.2-0.3c-1.3,0.3-2.6,0.7-4,1c-0.8-1.7-1.6-3.3-2.3-5c-1.9,0.5-3.7,1-5.7,1.5
	c0.7,1.6,1.4,3.1,2.1,4.6c-1.5,0.3-2.9,0.6-4.3,1c0.7,1.6,1.2,3,1.9,4.3c0.2,0.3,0.9,0.6,1.3,0.5c1.3-0.1,2.8-0.9,3.7-0.4
	c0.9,0.5,1.2,2.2,1.8,3.3c0.2,0.3,0.6,0.8,0.9,0.7c1.6-0.2,3.2-0.5,4.9-0.8c-0.4-0.9-0.7-1.7-1-2.4
	C123.8,185.5,123.5,184.8,123.1,183.9z M193.1,113.4c-1.1,1.4-1.9,2.7-2.9,3.8c-0.6,0.7-0.8,1.4-0.2,2.1c1.8,2.4,1.7,4.6-0.5,6.8
	c-0.3,0.3-0.5,1-0.4,1.3c0.7,1.6,1.5,3.2,2.4,5c1-1.4,1.9-2.6,2.9-3.9c0.8,1.6,1.5,3,2.3,4.8c0.9-1.5,1.5-2.7,2.3-3.8
	c0.9-1.3,1.1-2.5,0.2-3.8c-1.2-1.7-1-3.2,0.2-4.9c0.4-0.6,0.9-1.6,0.7-2.2c-0.7-1.7-1.6-3.3-2.6-5.3c-0.8,1.5-1.5,2.7-2.3,4.2
	C194.5,116.1,193.8,114.9,193.1,113.4z M101.5,168.9c-0.8-1.5-1.5-2.8-2.3-4.1c-0.2-0.3-0.8-0.5-1.2-0.4c-1.2,0.2-2.7,1.2-3.6,0.8
	c-1-0.5-1.4-2.1-2.2-3.2c-0.3-0.4-1-0.7-1.4-0.5c-1.5,0.5-2.9,1.1-4.6,1.7c0.8,1.5,1.6,2.9,2.4,4.4c-1.5,0.4-2.8,0.7-4.3,1.1
	c0.7,1.3,1.3,2.4,1.9,3.6c0.4,0.8,0.8,1,1.8,0.8c3.3-0.9,3.3-0.8,5,2.1c0.2,0.4,0.8,1,1.1,0.9c1.7-0.2,3.4-0.7,5.2-1.1
	c-0.9-1.6-1.6-3.1-2.4-4.6C98.5,169.8,99.9,169.4,101.5,168.9z M77.2,147.8c-1.6,1.2-3.1,2.3-4.5,3.3c0.8,1.4,1.5,2.6,2.3,3.9
	c-1.1,0.8-2.1,1.5-3.2,2.2c0.9,1.6,1.8,3,2.7,4.4c1.2-0.6,2.3-1.1,3.3-1.7c0.8,1.3,1.6,2.5,2.4,3.8c1.8-1,3.5-1.9,5.2-2.9
	c-0.8-1.5-1.6-2.9-2.4-4.3c1.3-0.7,2.4-1.4,3.8-2.2c-0.9-1.6-1.8-3-2.8-4.6c-1.3,0.8-2.5,1.5-3.9,2.2
	C79.1,150.7,78.2,149.4,77.2,147.8z M183.3,94.8c-1,0.8-1.9,1.4-2.7,2.1c-0.3,0.2-0.6,0.8-0.5,1.1c0.8,1.4,1.7,2.8,2.6,4.2
	c1.2-1,2.3-1.8,3.5-2.7c1,1.6,1.8,3.1,2.8,4.7c1.2-1.2,2.1-2.2,3.1-3.1c0.7-0.6,0.6-1.2,0.2-1.8c-0.6-1-1.2-2.1-1.7-3
	c0.8-0.8,1.5-1.4,2.1-2.1c0.2-0.3,0.4-0.9,0.2-1.2c-0.7-1.3-1.5-2.6-2.3-3.9c-1.1,0.8-2.1,1.5-3.1,2.1c-1-1.4-1.8-2.6-2.8-3.9
	c-1.5,1-2.8,2-4.1,2.9C181.6,91.7,182.4,93.2,183.3,94.8z M198.4,139.8c-0.6-1.2-1-2.2-1.6-3.4c-0.9,1.5-1.6,2.7-2.5,3.9
	c-0.9,1.2-1.2,2.4-0.4,3.7c1.1,1.6,0.6,3-0.5,4.4c-0.4,0.4-0.8,1.1-0.6,1.6c0.6,1.8,1.3,3.5,2.1,5.5c0.9-1.2,1.5-2.2,2.3-3.3
	c0.5,1.4,0.9,2.5,1.5,4c1-1.9,1.8-3.5,2.7-5c0.6-1,0.8-2,0.2-3.1c-1-1.6-0.6-3,0.3-4.4c0.4-0.7,1.1-1.6,0.9-2.3
	c-0.5-2-1.4-3.9-2.2-6.2C199.8,137,199.1,138.2,198.4,139.8z M141,202.4c1.4-0.4,2.5-0.6,3.7-1c0.2,1.1,0.4,2,0.6,3.1
	c2-0.6,3.8-1.1,5.7-1.6c-0.1-1.1-0.2-2.1-0.3-3.2c1.2-0.5,2.4-0.9,3.6-1.4c-0.5-1.7-0.9-3.3-1.4-4.9c-1.4,0.4-2.6,0.8-3.7,1.2
	c-0.4-1.3-0.7-2.4-1.1-3.6c-2,0.6-3.8,1.2-5.7,1.8c0.3,1.4,0.6,2.5,0.9,3.8c-1.3,0.4-2.4,0.7-3.7,1.1
	C140.2,199.2,140.6,200.8,141,202.4z M99.7,195.9c1.2,0.1,2.2,0.1,3.5,0.2c-0.5-1.4-1-2.6-1.3-3.8c-0.3-1.3-1.1-1.8-2.4-1.6
	c-1.3,0.2-2.1-0.3-2.4-1.6c-0.2-0.6-0.6-1.6-1.1-1.6c-1.9-0.4-3.9-0.4-6-0.7c0.4,1,0.7,1.7,1,2.6c-1.1-0.2-2.1-0.4-3.3-0.5
	c0.5,1.4,1.1,2.5,1.4,3.7c0.4,1.4,1.1,2,2.5,2.1c1.4,0,2,0.8,2.3,2.1c0.1,0.4,0.4,1,0.8,1.1c1.9,0.5,3.8,0.8,5.9,1.3
	C100.2,197.9,100,197,99.7,195.9z M48.1,125.5c-0.4,2-0.7,3.6-1.1,5.3c-0.3,1-0.1,1.8,0.7,2.5c0.4,0.3,0.8,1,0.7,1.3
	c-1,3.4,1.6,4.8,3.5,7.1c0.2-1,0.3-1.7,0.5-2.5c0.6,0.5,1,0.9,1.6,1.4c0.6-1.8,1.2-3.3,1.5-5c0.1-0.6,0-1.5-0.4-2
	c-1.2-1.3-1.2-2.6-0.6-4.1c0.2-0.6,0.4-1.5,0.1-1.9c-1-1.4-2.1-2.6-3.4-4c-0.4,1.4-0.8,2.5-1.2,3.7
	C49.3,126.7,48.8,126.2,48.1,125.5z M73.7,166.3c-0.3-0.6-0.6-1.2-0.9-1.8c-1.5-2.6-1.5-2.6-4.2-1.7c0,0-0.1,0-0.2-0.1
	c-0.5-0.8-1.1-1.7-1.8-2.7c-1.5,0.9-3,1.8-4.4,2.7c0.5,0.9,0.9,1.6,1.3,2.4c-0.8,0.4-1.4,0.6-2.3,1c0.8,1.4,1.6,2.8,2.4,4.2
	c1.6-1,2.8-0.9,3.4,1c0.1,0.2,0.7,0.5,1.1,0.4c1.6-0.3,3.1-0.7,4.8-1.1c-0.6-1.1-1.1-2-1.6-3C72.1,167.1,72.8,166.8,73.7,166.3z"/>
</svg>
